<?xml version="1.0" encoding="UTF-8"?>
<svg id="Layer_1" data-name="Layer 1" xmlns="http://www.w3.org/2000/svg" viewBox="0 0 31.29 31.3">
  <defs>
    <style>
      .cls-1 {
        stroke-width: 0px;
      }
    </style>
  </defs>
  <path class="cls-1" d="m16.37,27.81c0,.89,0,1.83,0,2.77,0,.41-.28.71-.66.73-.44.02-.75-.27-.75-.72,0-.83,0-1.66,0-2.49,0-.11,0-.22,0-.29-6.65-.97-10.44-4.76-11.43-11.44-.05,0-.17,0-.28,0-.83,0-1.66,0-2.48,0-.43,0-.75-.3-.76-.7,0-.41.32-.72.77-.72.94,0,1.87,0,2.83,0,.23-3.05,1.38-5.68,3.54-7.84,2.15-2.15,4.77-3.3,7.82-3.53,0-.44,0-.86,0-1.28,0-.53,0-1.07,0-1.6,0-.4.3-.69.69-.7.4,0,.72.28.72.7,0,.95,0,1.89,0,2.81,6.65.97,10.43,4.76,11.43,11.44.04,0,.14,0,.25,0,.83,0,1.66,0,2.48,0,.47,0,.76.29.76.72,0,.42-.3.7-.75.7-.93,0-1.85,0-2.74,0-.97,6.66-4.75,10.45-11.42,11.44Zm-1.42-6.89c0-.18,0-.35,0-.53,0-.87.19-1.19.7-1.19.52,0,.72.32.72,1.18,0,.18,0,.36,0,.55,2.64-.33,4.38-2.59,4.53-4.54-.02,0-.04-.02-.06-.02-.3,0-.59,0-.89,0-.47,0-.81-.31-.8-.72.01-.41.33-.69.79-.69.32,0,.64,0,.96,0-.33-2.67-2.61-4.4-4.55-4.54,0,.32,0,.63,0,.95,0,.46-.29.76-.72.76-.42,0-.69-.3-.7-.75,0-.32,0-.64,0-.97-2.5.29-4.35,2.43-4.54,4.56.33,0,.65,0,.97,0,.44,0,.74.29.73.71,0,.42-.3.7-.74.71-.32,0-.65,0-.97,0,.15,2.21,2.36,4.42,4.55,4.55Zm-.01-15.86c-5.22.15-9.74,4.83-9.85,9.86.03,0,.05.02.08.02,1.19,0,2.39,0,3.58,0,.17,0,.21-.08.23-.23.36-2.66,2.31-4.89,4.89-5.58.35-.09.71-.16,1.07-.24v-3.84Zm1.43-.01c0,1.26,0,2.49,0,3.72,0,.06.14.17.22.18,2.6.34,4.87,2.33,5.56,4.89.1.36.16.73.24,1.09h3.85c-.2-5.13-4.62-9.65-9.88-9.88Zm-1.43,17.34c-.22-.04-.41-.07-.6-.1-2.72-.5-5.03-2.94-5.35-5.66-.03-.23-.12-.26-.32-.26-1.11,0-2.23,0-3.34,0-.09,0-.17,0-.26.01.26,5.41,4.9,9.7,9.87,9.87v-3.87Zm1.44,3.87c5.6-.24,9.81-5.23,9.85-9.88h-3.81c-.63,3.42-2.64,5.42-6.03,6.03v3.84Z"/>
</svg>